<svg id="Layer_1" data-name="Layer 1" xmlns="http://www.w3.org/2000/svg" viewBox="0 0 400 400"><defs><style>.cls-1{fill:#666;}.cls-2{fill:#fff;}</style></defs><title>Artboard 1</title><path class="cls-1" d="M378.69,21.35h0a72.88,72.88,0,0,0-116.6,84.38,7.14,7.14,0,0,1-1.32,8.27l-5.86,5.86a7.14,7.14,0,0,0,.58,10.62,90.77,90.77,0,0,1,7.41,6.65,91.74,91.74,0,0,1,6.63,7.39,7.15,7.15,0,0,0,10.63.6l5.84-5.84a7.12,7.12,0,0,1,8.25-1.33,72.9,72.9,0,0,0,84.44-116.6Zm-36.91,85.87c-.22.1-.44.2-.67.28-14.77,5.44-30,1.92-40.24-8.34A37.17,37.17,0,0,1,353.43,46.6h0a36.91,36.91,0,0,1,10.88,26.28C364.31,87.38,356.06,100.61,341.78,107.22Z"/><path class="cls-1" d="M144.51,269.56a94.63,94.63,0,0,1-7.41-6.65,90.19,90.19,0,0,1-6.63-7.4,7.14,7.14,0,0,0-10.63-.59L114,260.75a7.12,7.12,0,0,1-8.25,1.33,72.95,72.95,0,1,0,32.16,32.23,7.14,7.14,0,0,1,1.32-8.27l5.86-5.86A7.14,7.14,0,0,0,144.51,269.56ZM99.13,353.43a37.21,37.21,0,0,1-52.56,0C36.31,343.18,32.79,328,38.22,313.21c.09-.23.18-.45.28-.67C45.1,298.25,58.34,290,72.85,290a37.16,37.16,0,0,1,26.28,63.44Z"/><path class="cls-2" d="M378.69,275.62a73,73,0,0,0-84.44-13.54,7.12,7.12,0,0,1-8.25-1.33l-19.59-19.59a7.11,7.11,0,0,1-1.33-8.25A72.91,72.91,0,0,0,167.15,135a7.13,7.13,0,0,1-8.27-1.32L139.23,114a7.14,7.14,0,0,1-1.32-8.27A72.69,72.69,0,1,0,105.75,138a7.12,7.12,0,0,1,8.25,1.33l19.59,19.59a7.12,7.12,0,0,1,1.33,8.25,72.93,72.93,0,0,0,98,97.93,7.12,7.12,0,0,1,8.23,1.34L260.77,286a7.14,7.14,0,0,1,1.32,8.27,72.88,72.88,0,1,0,116.6-18.69ZM72.85,110A36.91,36.91,0,0,1,46.57,99.16C36.31,88.9,32.79,73.7,38.23,58.92q.12-.33.27-.66C45.11,44,58.34,35.72,72.85,35.72a37.16,37.16,0,1,1,0,74.32ZM226.28,226.29C216,236.55,200.82,240.08,186,234.64c-.22-.08-.44-.18-.66-.28-14.29-6.6-22.55-19.84-22.55-34.34a37.17,37.17,0,1,1,63.45,26.27ZM353.43,353.43a37.17,37.17,0,1,1,10.88-26.28A37.21,37.21,0,0,1,353.43,353.43Z"/></svg>