<svg id="Layer_1" data-name="Layer 1" xmlns="http://www.w3.org/2000/svg" viewBox="0 0 400 400"><defs><style>.cls-1{fill:gray;}.cls-2{fill:#fff;}</style></defs><title>no-castling-chess-icon</title><path class="cls-1" d="M379.54,20.46c-19.37-19.37-48.1-26-76-15.55-.18.06-.36.14-.54.22-27.08,12.36-42.73,37.35-42.73,64.74a69.53,69.53,0,0,0,9.09,34.53,6.73,6.73,0,0,1-1,8.12L254,126.85a6.79,6.79,0,0,0,.4,10q2.35,2,4.56,4.24t4.24,4.56a6.78,6.78,0,0,0,10,.41l14.3-14.31a6.82,6.82,0,0,1,8.2-1.07,69.78,69.78,0,0,0,34.48,9.07c26,0,52.08-14.43,64.95-43.29.08-.18.15-.36.22-.54C405.41,68.17,398.77,39.7,379.54,20.46Zm-19.15,79.66a42.78,42.78,0,1,1,0-60.5h0a42.78,42.78,0,0,1,0,60.5Z"/><path class="cls-1" d="M146,273.18a6.79,6.79,0,0,0-.4-9.95q-2.35-2-4.56-4.23t-4.24-4.56a6.78,6.78,0,0,0-9.95-.41l-14.3,14.3a6.82,6.82,0,0,1-8.2,1.07,69.86,69.86,0,1,0,26.29,26.29,6.8,6.8,0,0,1,1.06-8.2Zm-45.88,87.24a42.77,42.77,0,1,1,0-60.51A42.83,42.83,0,0,1,100.11,360.42Z"/><path class="cls-2" d="M379.54,280.76a70,70,0,0,0-83.88-11.36,6.83,6.83,0,0,1-8.2-1.06l-25.64-25.65a6.79,6.79,0,0,1-1.06-8.18,69.89,69.89,0,0,0-95.29-95.26,6.74,6.74,0,0,1-8.12-1l-25.68-25.69a6.73,6.73,0,0,1-1-8.12,70,70,0,0,0-11.37-83.94C99.9,1.1,71.16-5.5,43.28,4.9l-.54.23C7.22,21.34-8.65,59.27,4.69,95.87c.07.18.14.36.22.54,12.87,28.86,38.91,43.29,65,43.29a69.78,69.78,0,0,0,34.48-9.07,6.82,6.82,0,0,1,8.2,1.07l25.63,25.64a6.82,6.82,0,0,1,1.07,8.2,69.92,69.92,0,0,0,77.83,102.25,68.63,68.63,0,0,0,17.44-7,6.79,6.79,0,0,1,8.16,1l25.64,25.65a6.8,6.8,0,0,1,1.06,8.2,69.87,69.87,0,0,0,110.17,83.88h0A70,70,0,0,0,379.54,280.76ZM39.61,100.12a42.78,42.78,0,1,1,60.5,0A42.51,42.51,0,0,1,39.61,100.12ZM200,242.8a42.79,42.79,0,1,1,30.25-12.53A42.49,42.49,0,0,1,200,242.8ZM360.39,360.42a42.77,42.77,0,1,1,0-60.51A42.83,42.83,0,0,1,360.39,360.42Z"/></svg>